/* XPM */
static char * icon_xpm[] = {
"44 44 310 2",
"  	c None",
". 	c #000000",
"+ 	c #141414",
"@ 	c #090909",
"# 	c #202020",
"$ 	c #505050",
"% 	c #4D4D4D",
"& 	c #717171",
"* 	c #1F1F1F",
"= 	c #010101",
"- 	c #030303",
"; 	c #020202",
"> 	c #050505",
", 	c #525252",
"' 	c #919191",
") 	c #8C8C8C",
"! 	c #343434",
"~ 	c #7F7F7F",
"{ 	c #8D8D8D",
"] 	c #696969",
"^ 	c #484848",
"/ 	c #646464",
"( 	c #F1F1F1",
"_ 	c #DEDEDE",
": 	c #494949",
"< 	c #C1C1C1",
"[ 	c #E6E5E5",
"} 	c #E4E4E4",
"| 	c #E2E2E2",
"1 	c #DFDFDF",
"2 	c #DCDCDC",
"3 	c #D8D8D8",
"4 	c #D3D3D3",
"5 	c #CDCCCC",
"6 	c #C6C6C6",
"7 	c #BFBFBF",
"8 	c #C9C9C9",
"9 	c #EBEBEB",
"0 	c #F3F3F3",
"a 	c #818181",
"b 	c #4F4F4F",
"c 	c #D5D5D5",
"d 	c #F2F2F2",
"e 	c #E5E5E5",
"f 	c #5E5E5E",
"g 	c #0D0D0D",
"h 	c #A7A7A7",
"i 	c #DBDBDB",
"j 	c #CDCDCD",
"k 	c #C4C4C4",
"l 	c #B7B7B7",
"m 	c #A8A8A8",
"n 	c #979797",
"o 	c #838383",
"p 	c #6E6E6E",
"q 	c #7C7C7C",
"r 	c #B5B4B4",
"s 	c #FFFFFF",
"t 	c #808080",
"u 	c #545454",
"v 	c #727272",
"w 	c #A6A6A6",
"x 	c #D4D4D4",
"y 	c #ECECEC",
"z 	c #969696",
"A 	c #6F6F6F",
"B 	c #0A0A0A",
"C 	c #8B8B8B",
"D 	c #7A7A7A",
"E 	c #7E7E7E",
"F 	c #272727",
"G 	c #B3B3B3",
"H 	c #CBCBCB",
"I 	c #F0F0F0",
"J 	c #9F9F9F",
"K 	c #7D7D7D",
"L 	c #121212",
"M 	c #989898",
"N 	c #C3C3C3",
"O 	c #EEEEEE",
"P 	c #A9A9A9",
"Q 	c #848484",
"R 	c #131313",
"S 	c #474747",
"T 	c #C0C0C0",
"U 	c #AAAAAA",
"V 	c #AFAFAF",
"W 	c #A5A5A5",
"X 	c #F1F0F0",
"Y 	c #7D7C7C",
"Z 	c #040404",
"` 	c #BCBCBC",
" .	c #E9E9E9",
"..	c #878787",
"+.	c #1E1E1E",
"@.	c #2C2C2C",
"#.	c #B1B1B1",
"$.	c #A0A0A0",
"%.	c #B2B2B2",
"&.	c #888888",
"*.	c #2B2B2B",
"=.	c #181818",
"-.	c #9D9D9D",
";.	c #ACACAC",
">.	c #A3A3A3",
",.	c #9C9C9C",
"'.	c #B1B0B0",
").	c #F6F6F6",
"!.	c #D7D7D7",
"~.	c #060606",
"{.	c #454545",
"].	c #AEAEAE",
"^.	c #B5B5B5",
"/.	c #DADADA",
"(.	c #D0D0D0",
"_.	c #3E3E3E",
":.	c #A1A1A1",
"<.	c #969595",
"[.	c #959494",
"}.	c #949393",
"|.	c #BABABA",
"1.	c #D1D1D1",
"2.	c #D9D9D9",
"3.	c #8A8A8A",
"4.	c #535353",
"5.	c #080808",
"6.	c #929292",
"7.	c #898989",
"8.	c #858585",
"9.	c #787878",
"0.	c #ADADAD",
"a.	c #303030",
"b.	c #1A1A1A",
"c.	c #C8C8C8",
"d.	c #EFEFEF",
"e.	c #676767",
"f.	c #070707",
"g.	c #565656",
"h.	c #868686",
"i.	c #828282",
"j.	c #757575",
"k.	c #2A2A2A",
"l.	c #EDEDED",
"m.	c #4C4C4C",
"n.	c #0E0E0E",
"o.	c #EAEAEA",
"p.	c #939393",
"q.	c #767676",
"r.	c #434343",
"s.	c #7B7B7B",
"t.	c #777777",
"u.	c #737373",
"v.	c #6A6A6A",
"w.	c #5D5D5D",
"x.	c #686868",
"y.	c #E7E7E7",
"z.	c #9B9B9B",
"A.	c #797979",
"B.	c #6C6C6C",
"C.	c #747474",
"D.	c #707070",
"E.	c #636363",
"F.	c #A4A4A4",
"G.	c #4A4A4A",
"H.	c #B6B6B6",
"I.	c #E1E1E1",
"J.	c #B0B0B0",
"K.	c #656565",
"L.	c #616161",
"M.	c #A2A2A2",
"N.	c #9E9E9E",
"O.	c #2E2E2E",
"P.	c #B4B4B4",
"Q.	c #5C5C5C",
"R.	c #626262",
"S.	c #5A5A5A",
"T.	c #CFCFCF",
"U.	c #E8E8E8",
"V.	c #1C1C1C",
"W.	c #242424",
"X.	c #575757",
"Y.	c #949494",
"Z.	c #909090",
"`.	c #292929",
" +	c #8F8F8F",
".+	c #4B4B4B",
"++	c #999999",
"@+	c #8E8E8E",
"#+	c #3A3A3A",
"$+	c #1B1B1B",
"%+	c #424242",
"&+	c #222222",
"*+	c #414141",
"=+	c #9A9A9A",
"-+	c #6D6D6D",
";+	c #615859",
">+	c #6D1C1F",
",+	c #250B0C",
"'+	c #060303",
")+	c #404040",
"!+	c #3B3B3B",
"~+	c #3F3F3F",
"{+	c #6B6B6B",
"]+	c #666666",
"^+	c #814D4F",
"/+	c #D1292F",
"(+	c #DE1A22",
"_+	c #8F171C",
":+	c #2D1211",
"<+	c #070602",
"[+	c #1C1B18",
"}+	c #151515",
"|+	c #383838",
"1+	c #333333",
"2+	c #5F5F5F",
"3+	c #5B5B5B",
"4+	c #5D5555",
"5+	c #A93438",
"6+	c #ED1C24",
"7+	c #E12323",
"8+	c #B15F12",
"9+	c #574F07",
"0+	c #100F05",
"a+	c #2C2C2B",
"b+	c #2D2D2D",
"c+	c #C34C50",
"d+	c #D92A31",
"e+	c #DC272E",
"f+	c #DB262D",
"g+	c #DA252C",
"h+	c #DD242B",
"i+	c #E32028",
"j+	c #EA1D24",
"k+	c #EC1C24",
"l+	c #DC2525",
"m+	c #F1591D",
"n+	c #F9B711",
"o+	c #FCEA0B",
"p+	c #CFC110",
"q+	c #565220",
"r+	c #8B7D7D",
"s+	c #9B4D50",
"t+	c #B53B40",
"u+	c #D02B31",
"v+	c #E91D25",
"w+	c #F1551D",
"x+	c #F7AB13",
"y+	c #F9CC0E",
"z+	c #FBE30C",
"A+	c #E4D40F",
"B+	c #CFC113",
"C+	c #B6AA14",
"D+	c #8C8317",
"E+	c #4D4A1B",
"F+	c #606060",
"G+	c #5C5757",
"H+	c #6C4A4B",
"I+	c #813F41",
"J+	c #983539",
"K+	c #B23030",
"L+	c #D13028",
"M+	c #E92224",
"N+	c #EC2F22",
"O+	c #F15F1C",
"P+	c #F69715",
"Q+	c #B69417",
"R+	c #81791A",
"S+	c #45421C",
"T+	c #595959",
"U+	c #585454",
"V+	c #754547",
"W+	c #823D40",
"X+	c #87373A",
"Y+	c #8E3236",
"Z+	c #962E32",
"`+	c #A22A2F",
" @	c #D42026",
".@	c #ED1E24",
"+@	c #F7A114",
"@@	c #DFD00D",
"#@	c #6B640F",
"$@	c #5F4849",
"%@	c #C5282E",
"&@	c #E91C24",
"*@	c #EF3821",
"=@	c #F3701A",
"-@	c #F69515",
";@	c #F7C010",
">@	c #C8BA0C",
",@	c #736B0B",
"'@	c #908D70",
")@	c #DBDADA",
"!@	c #D4D3D3",
"~@	c #D3D2D2",
"{@	c #D3CECE",
"]@	c #D4C1C1",
"^@	c #D6B4B5",
"/@	c #D8A7A8",
"(@	c #D8999B",
"_@	c #DA9497",
":@	c #DC948A",
"<@	c #DE967F",
"[@	c #E09775",
"}@	c #E2986B",
"|@	c #E2986A",
"1@	c #E0B178",
"2@	c #DCD68C",
"3@	c #DCD58B",
"4@	c #E5E2BB",
"5@	c #A8A7A7",
"                                                                                        ",
"                                                                                        ",
"                                                                                        ",
"                                                                                        ",
"                                                                                        ",
"                                                                                        ",
"                                                                                        ",
"            . . + @ .                                                                   ",
"          . # $ % & * = - - - - - - - - - - - - - - - - ;                               ",
"          > , % % ' ) ! + ~ { { { { { { { { { { { { { ] - ;                             ",
"        . ^ % % / ( _ { : + < [ } | 1 2 3 4 5 6 7 8 9 0 a - ;                           ",
"        . $ % b c d d e ' f g h i c j k l m n o p q r s 0 t - ;                         ",
"        . u v w x d d d y z A B C c j k l m n o p D r s s 0 E - ;                       ",
"        . F w G G H I d d I J K g ] j k l m n o & a r s s s ( K - ;                     ",
"          . L M G G N O d d d P Q R S T l U h m V W r s s s s X Y - ;                   ",
"            . Z o G G `  .d d d l ..+.@.#.l G V U $.r s s s s s I q =                   ",
"                . / %.G l | d d d k &.*.=.-.;.m >.,.'.( ( ( ( ( ).!.~.                  ",
"                  . {.].G ^./.d d d (.&._.g ..:.-.n <.<.[.[.[.}.|./.~.                  ",
"                  . Z @.h G G 1.d d d 2.3.4.5.A z 6.{ 7.8.a q 9.0./.~.                  ",
"                  . F a.b.,.G G c.d.d d | { e.f.g.C h.i.E D j.& U /.~.                  ",
"                  . k.l.m.n.h.G G T y d d o.p.q.f.r.t s.t.u.A v.h /.~.                  ",
"                  . k.0 T w.5.x.%.G |.y.d d O z.A.~.B.C.D.B.x.E.F./.~.                  ",
"                  . k.0 ^.P v @ G.V G H.I.d d d J.=.@.p ] K.L.w.:./.~.                  ",
"                  . k.0 V M.N.~ g O.P G P.3 d d 7 g.> Q.R.f S.g.N./.~.                  ",
"                  . k.0 U z.n p.o =.b.-.G G T.U.o ~ V.W.Q.X.4.b ,./.~.                  ",
"                  . k.0 W Y.Z.) &.~ `.g 7.0.N. +t t w.Z .+$ m.^ ++/.~.                  ",
"                  . k.0 $.@+7.8.a K 9.#+> $+%+B.t t t &+V.G.{.*+z /.~.                  ",
"                  . k.0 =+..i.E D q.& -+;+>+,+'+b.)+v.E.- !+~+#+p./.~.                  ",
"                  . k.0 Y.t q t.u.A {+]+R.^+/+(+_+:+<+[+5.}+|+1+Z./.~.                  ",
"                  . k.0  +A.j.D.B.x./ 2+3+4+5+6+6+6+7+8+9+0+a+b+{ /.~.                  ",
"                  . k.0 c+d+e+f+g+h+i+i+j+6+6+6+6+k+l+m+n+o+p+q+3./.~.                  ",
"                  . k.0 r+s+t+u+v+6+6+6+6+6+w+x+y+z+o+A+B+C+D+E+../.~.                  ",
"                  . k.0 t / F+Q.G+H+I+J+K+L+M+6+N+O+P+Q+R+S+V.=.8./.~.                  ",
"                  . k.0 D f T+U+V+W+X+Y+Z+`+ @6+6+6+6+.@+@o+@@#@a /.~.                  ",
"                  . k.0 C.X., $@%@&@6+6+6+6+6+6+6+6+*@=@-@;@>@,@'@/.~.                  ",
"                  . k.0 )@x !@4 ~@{@]@^@/@(@_@:@<@[@}@|@|@1@2@3@4@/.~.                  ",
"                  . +.:.5@5@5@5@5@5@5@5@5@5@5@5@5@5@5@5@5@5@5@5@5@}.>                   ",
"                  . . . . . . . . . . . . . . . . . . . . . . . . . .                   ",
"                                                                                        ",
"                                                                                        ",
"                                                                                        ",
"                                                                                        ",
"                                                                                        ",
"                                                                                        "};
