<?xml version="1.0" encoding="utf-8"?>
<!-- Generator: Adobe Illustrator 13.0.2, SVG Export Plug-In . SVG Version: 6.00 Build 14948)  -->
<!DOCTYPE svg PUBLIC "-//W3C//DTD SVG 1.1//EN" "http://www.w3.org/Graphics/SVG/1.1/DTD/svg11.dtd">
<svg version="1.1" id="Layer_1" xmlns="http://www.w3.org/2000/svg" xmlns:xlink="http://www.w3.org/1999/xlink" x="0px" y="0px"
	 width="36px" height="36px" viewBox="0 0 36 36" enable-background="new 0 0 36 36" xml:space="preserve">
<linearGradient id="SVGID_1_" gradientUnits="userSpaceOnUse" x1="-857.0088" y1="-1492.8516" x2="-823.4287" y2="-1492.8516" gradientTransform="matrix(-1 0 0 -1 -822.2188 -1474.8467)">
	<stop  offset="0" style="stop-color:#FFFFFF"/>
	<stop  offset="0.1383" style="stop-color:#FAFAFA"/>
	<stop  offset="0.3118" style="stop-color:#EAEAEA"/>
	<stop  offset="0.5042" style="stop-color:#D1D1D1"/>
	<stop  offset="0.7101" style="stop-color:#ADADAD"/>
	<stop  offset="0.9247" style="stop-color:#7F7F7F"/>
	<stop  offset="1" style="stop-color:#6E6E6E"/>
</linearGradient>
<path fill="url(#SVGID_1_)" d="M29.05,0.84c3.15,0,5.74,2.58,5.74,5.74v22.85c0,3.15-2.58,5.74-5.74,5.74H6.95
	c-3.15,0-5.74-2.58-5.74-5.74V6.58c0-3.15,2.58-5.74,5.74-5.74H29.05z"/>
<polygon points="9.37,25.99 9.37,9.02 26.35,9.02 26.35,24.52 26.35,25.99 "/>
<rect x="10.58" y="10.23" fill="#FFFFFF" width="14.55" height="14.56"/>
<linearGradient id="SVGID_2_" gradientUnits="userSpaceOnUse" x1="126.54" y1="824.5049" x2="139.1797" y2="824.5049" gradientTransform="matrix(1 0 0 1 -115 -807)">
	<stop  offset="0" style="stop-color:#FFFFFF"/>
	<stop  offset="1" style="stop-color:#000000"/>
</linearGradient>
<polygon fill="url(#SVGID_2_)" points="11.54,23.83 24.18,23.83 24.18,11.18 11.54,11.18 "/>
</svg>
