<?xml version="1.0" encoding="utf-8"?>
<!-- Generator: Adobe Illustrator 13.0.2, SVG Export Plug-In . SVG Version: 6.00 Build 14948)  -->
<!DOCTYPE svg PUBLIC "-//W3C//DTD SVG 1.1//EN" "http://www.w3.org/Graphics/SVG/1.1/DTD/svg11.dtd">
<svg version="1.1" id="Layer_1" xmlns="http://www.w3.org/2000/svg" xmlns:xlink="http://www.w3.org/1999/xlink" x="0px" y="0px"
	 width="36px" height="36px" viewBox="0 0 36 36" enable-background="new 0 0 36 36" xml:space="preserve">
<rect fill="none" width="36" height="36"/>
<linearGradient id="SVGID_1_" gradientUnits="userSpaceOnUse" x1="191.4199" y1="865.0049" x2="158.5801" y2="865.0049" gradientTransform="matrix(1 0 0 1 -157 -847)">
	<stop  offset="0" style="stop-color:#BBBBBB"/>
	<stop  offset="2.400000e-03" style="stop-color:#B9B9B9"/>
	<stop  offset="0.0546" style="stop-color:#969595"/>
	<stop  offset="0.1117" style="stop-color:#777676"/>
	<stop  offset="0.1764" style="stop-color:#5D5A5B"/>
	<stop  offset="0.2496" style="stop-color:#474445"/>
	<stop  offset="0.335" style="stop-color:#373334"/>
	<stop  offset="0.4406" style="stop-color:#2B2829"/>
	<stop  offset="0.5887" style="stop-color:#252122"/>
	<stop  offset="1" style="stop-color:#231F20"/>
</linearGradient>
<path fill="url(#SVGID_1_)" d="M7.19,34.79c-3.09,0-5.61-2.53-5.61-5.61V6.83c0-3.09,2.52-5.61,5.61-5.61h21.62
	c3.09,0,5.61,2.53,5.61,5.61v22.35c0,3.09-2.53,5.61-5.61,5.61H7.19z"/>
<path d="M7.19,35.79v-1v-1h21.62c2.53,0,4.61-2.08,4.61-4.61l0,0V6.83c0-2.53-2.08-4.61-4.61-4.61l0,0H7.19
	c-2.53,0-4.61,2.08-4.61,4.61l0,0v22.35c0,2.53,2.08,4.61,4.61,4.61l0,0v1V35.79c-3.65,0-6.61-2.97-6.61-6.61l0,0V6.83
	c0-3.64,2.97-6.61,6.61-6.61l0,0h21.62c3.64,0,6.61,2.97,6.61,6.61l0,0v22.35c0,3.64-2.97,6.61-6.61,6.61l0,0H7.19L7.19,35.79z"/>
<linearGradient id="SVGID_2_" gradientUnits="userSpaceOnUse" x1="117.46" y1="821.4395" x2="148.4199" y2="821.4395" gradientTransform="matrix(1 0 0 1 -115 -807)">
	<stop  offset="0" style="stop-color:#000000"/>
	<stop  offset="0.6538" style="stop-color:#1C1C1C"/>
	<stop  offset="1" style="stop-color:#757575"/>
</linearGradient>
<path fill="url(#SVGID_2_)" d="M28.13,1.93H7.75c-2.91,0-5.29,2.38-5.29,5.29v19.73c2.66-3.11,12.05-12.38,30.96-14.39V7.21
	C33.42,4.31,31.04,1.93,28.13,1.93z"/>
<path stroke="#000000" d="M24,26.6h-0.02v-0.88v0.88c-0.47-0.01-0.97-0.13-1.42-0.45l0,0c-0.45-0.31-0.83-0.91-0.83-1.61l0,0
	c0-0.15,0-0.3,0-0.45l0,0c0-0.02,0-0.05,0-0.1l0,0c0.01-1.44-0.17-2.57-0.78-3.14l0,0c-1.05-1.1-2.86-1.37-3.67-1.39l0,0v1.5
	c0,0.37-0.1,0.74-0.34,1.09l0,0c-0.23,0.35-0.72,0.68-1.28,0.67l0,0c-0.48,0-0.89-0.23-1.15-0.43l0,0l-0.02-0.02l-5.5-5.06
	l-0.96-0.89l6.44-7.07l0.06-0.04c0.26-0.21,0.62-0.4,1.07-0.43l0,0c0.03,0,0.06,0,0.09,0l0,0c0.56-0.01,1.04,0.32,1.27,0.67l0,0
	c0.25,0.36,0.34,0.72,0.34,1.1l0,0v1.56l0.65,0.12c2.63,0.53,3.73,1.11,5.58,2.56l0,0c2.22,1.66,3.07,4.09,3.06,6.7l0,0v0.02v0.05
	c0,1.02-0.11,2.1-0.3,3.26l0,0c-0.25,1.25-1.38,1.79-2.23,1.79l0,0C24.03,26.6,24.02,26.6,24,26.6L24,26.6z"/>
<path stroke="#FFFFFF" d="M23.98,25.72c-0.6,0-1.36-0.37-1.38-1.19l0,0c0-0.15,0-0.3,0-0.44l0,0c0.01-1.5-0.1-2.94-1.03-3.85l0,0
	c-1.47-1.48-3.7-1.65-4.49-1.65l0,0c-0.19,0-0.28,0.01-0.32,0.01l0,0c-0.08,0-0.15,0-0.19,0l0,0c-0.09,0-0.16,0.01-0.2,0.01l0,0
	c0,0.01,0,0.03,0,0.06l0,0c0,0.05,0.01,0.12,0.02,0.21l0,0l0.01,0.04v2.04c0,0.38-0.24,0.88-0.74,0.88l0,0
	c-0.23,0-0.42-0.1-0.62-0.25l0,0l-5.47-5.03l-0.32-0.29l5.81-6.38c0.17-0.14,0.37-0.24,0.6-0.24l0,0c0.5,0,0.74,0.51,0.74,0.89l0,0
	v2.04l-0.01,0.04c-0.02,0.1-0.03,0.18-0.03,0.24l0,0c0,0.02,0,0.04,0,0.05l0,0c0.01,0,0.03,0,0.05,0l0,0c0.08,0,0.21-0.01,0.35-0.01
	l0,0h0.04l0.04,0.01l0.89,0.17c2.59,0.55,3.37,0.97,5.24,2.4l0,0c1.99,1.5,2.72,3.59,2.71,6.06l0,0c0,0.96-0.11,1.99-0.28,3.09l0,0
	c-0.14,0.75-0.83,1.07-1.41,1.07l0,0C24,25.72,23.99,25.72,23.98,25.72L23.98,25.72z"/>
<linearGradient id="SVGID_3_" gradientUnits="userSpaceOnUse" x1="124.8701" y1="824.6836" x2="140.2548" y2="824.6836" gradientTransform="matrix(1 0 0 1 -115 -807)">
	<stop  offset="0" style="stop-color:#FFFFFF"/>
	<stop  offset="1" style="stop-color:#000000"/>
</linearGradient>
<path fill="url(#SVGID_3_)" d="M9.87,16.25l5.47,5.02c0.34,0.27,0.63,0.13,0.63-0.31v-2c-0.17-0.88,0.37-0.81,0.81-0.81
	c0,0,3.11-0.24,5.12,1.76c1.19,1.19,1.16,2.98,1.16,4.61c0,0.98,1.76,1.02,1.94,0.04c0.62-3.87,0.32-6.75-2.27-8.73
	c-1.87-1.43-2.48-1.77-5.06-2.32l-0.88-0.17c-0.44,0-0.97,0.17-0.81-0.8v-2c0-0.44-0.29-0.58-0.63-0.31L9.87,16.25z"/>
<path fill="#FFFFFF" fill-opacity="0.25" d="M24.68,18.34c-0.4-0.95-1.03-1.78-1.96-2.49c-1.87-1.43-2.48-1.77-5.06-2.32l-0.88-0.17
	c-0.44,0-0.97,0.17-0.81-0.8v-2c0-0.44-0.29-0.58-0.63-0.31L10,16.11C13.27,15.38,18.74,15.03,24.68,18.34z"/>
</svg>
