<?xml version="1.0" encoding="utf-8"?>
<!-- Generator: Adobe Illustrator 13.0.2, SVG Export Plug-In . SVG Version: 6.00 Build 14948)  -->
<!DOCTYPE svg PUBLIC "-//W3C//DTD SVG 1.1//EN" "http://www.w3.org/Graphics/SVG/1.1/DTD/svg11.dtd">
<svg version="1.1" id="Layer_1" xmlns="http://www.w3.org/2000/svg" xmlns:xlink="http://www.w3.org/1999/xlink" x="0px" y="0px"
	 width="36px" height="36px" viewBox="0 0 36 36" enable-background="new 0 0 36 36" xml:space="preserve">
<rect fill="none" width="36" height="36"/>
<linearGradient id="SVGID_1_" gradientUnits="userSpaceOnUse" x1="191.4199" y1="865.0049" x2="158.5801" y2="865.0049" gradientTransform="matrix(1 0 0 1 -157 -847)">
	<stop  offset="0" style="stop-color:#BBBBBB"/>
	<stop  offset="2.400000e-03" style="stop-color:#B9B9B9"/>
	<stop  offset="0.0546" style="stop-color:#969595"/>
	<stop  offset="0.1117" style="stop-color:#777676"/>
	<stop  offset="0.1764" style="stop-color:#5D5A5B"/>
	<stop  offset="0.2496" style="stop-color:#474445"/>
	<stop  offset="0.335" style="stop-color:#373334"/>
	<stop  offset="0.4406" style="stop-color:#2B2829"/>
	<stop  offset="0.5887" style="stop-color:#252122"/>
	<stop  offset="1" style="stop-color:#231F20"/>
</linearGradient>
<path fill="url(#SVGID_1_)" d="M7.19,34.79c-3.09,0-5.61-2.53-5.61-5.61V6.83c0-3.09,2.52-5.61,5.61-5.61h21.62
	c3.09,0,5.61,2.53,5.61,5.61v22.35c0,3.09-2.53,5.61-5.61,5.61H7.19z"/>
<path d="M7.19,35.79v-1v-1h21.62c2.53,0,4.61-2.08,4.61-4.61l0,0V6.83c0-2.53-2.08-4.61-4.61-4.61l0,0H7.19
	c-2.53,0-4.61,2.08-4.61,4.61l0,0v22.35c0,2.53,2.08,4.61,4.61,4.61l0,0v1V35.79c-3.65,0-6.61-2.97-6.61-6.61l0,0V6.83
	c0-3.64,2.97-6.61,6.61-6.61l0,0h21.62c3.64,0,6.61,2.97,6.61,6.61l0,0v22.35c0,3.64-2.97,6.61-6.61,6.61l0,0H7.19L7.19,35.79z"/>
<linearGradient id="SVGID_2_" gradientUnits="userSpaceOnUse" x1="117.46" y1="821.4395" x2="148.4199" y2="821.4395" gradientTransform="matrix(1 0 0 1 -115 -807)">
	<stop  offset="0" style="stop-color:#000000"/>
	<stop  offset="0.6538" style="stop-color:#1C1C1C"/>
	<stop  offset="1" style="stop-color:#757575"/>
</linearGradient>
<path fill="url(#SVGID_2_)" d="M28.13,1.93H7.75c-2.91,0-5.29,2.38-5.29,5.29v19.73c2.66-3.11,12.05-12.38,30.96-14.39V7.21
	C33.42,4.31,31.04,1.93,28.13,1.93z"/>
<polygon points="24.74,5.11 24.78,5.1 24.79,5.09 26.12,4.86 27.09,4.69 27.1,4.7 27.13,4.69 30.42,7.37 30.86,8.97 31.27,10.39 
	31.26,10.41 31.26,10.41 31.25,10.42 31.22,10.45 31.23,10.44 25.94,15.46 15.08,25.84 5.74,29.54 9.55,20.2 "/>
<path d="M9.12,19.92L24.38,4.76l0.12-0.12h0.02l0.01-0.01l1.5-0.25l1.2-0.22l0.01,0.01h0.02l3.6,2.92l0.48,1.75l0.5,1.72l-0.01,0.01
	l0.06,0.18l-0.36,0.11l-5.24,4.96L15.35,26.27L4.83,30.43L9.12,19.92L9.12,19.92z M9.97,20.48l-3.33,8.16l8.16-3.23l10.79-10.32
	l5.1-4.82v-0.02l0.02-0.02L30.38,9.1l-0.4-1.45l-2.99-2.43l-0.04,0.01l-0.01-0.01l-0.73,0.13l-1.16,0.19l-0.02,0.02l-0.06,0.01
	L9.97,20.48L9.97,20.48z"/>
<polygon fill="#FFFFFF" points="25.12,5.65 25.16,5.64 25.17,5.63 26.31,5.44 27.13,5.29 27.13,5.3 27.16,5.29 29.97,7.57 
	30.34,8.94 30.69,10.15 30.67,10.16 30.68,10.16 30.67,10.17 30.64,10.19 30.65,10.19 26.15,14.46 14.75,25.35 6.54,28.71 
	9.74,20.87 "/>
<path fill="#FFFFFF" d="M9.65,20.79L25.04,5.56l0.03-0.03h0.03l0.01-0.01l0.04-0.01l1.13-0.2l0.88-0.16l0.01,0.01h0.02l2.89,2.38
	l0.37,1.36l0.37,1.28L30.8,10.2l0.02,0.08l-0.1,0.01l-4.5,4.26L14.8,25.47l-8.49,3.47L9.65,20.79L9.65,20.79z M9.85,20.92
	l-3.09,7.56l7.9-3.22l11.39-10.9l4.48-4.24l0,0l0.01-0.01l-0.33-1.14l-0.33-1.3l-2.76-2.25l-0.04,0.01l0,0l-0.76,0.13l-1.09,0.19
	l-0.02,0.02l-0.04,0.01L9.85,20.92L9.85,20.92z"/>
<polygon fill="#808080" points="6.89,28.3 10.07,20.94 25.21,5.85 27.09,5.52 29.72,7.65 30.42,10.06 14.52,25.14 "/>
<polygon fill="#B3B3B3" points="10.06,20.94 10.58,23.49 13.19,25.24 14.5,25.01 30.15,10.3 28.86,10.56 26.15,8.47 25.26,5.84 "/>
<polygon fill="#F2F2F2" points="10.65,23.58 26.15,8.41 28.84,10.53 13.06,25.25 "/>
<polygon fill="#808080" points="13.06,25.24 28.8,10.57 30.39,10.1 14.49,25.14 "/>
<polygon fill="#4D4D4D" points="26.11,8.43 25.26,5.84 27.12,5.52 29.74,7.65 30.41,10.08 28.82,10.58 "/>
</svg>
